<svg xmlns="http://www.w3.org/2000/svg" width="146" height="52.814" viewBox="0 0 146 52.814">
  <g id="Grupo_781" data-name="Grupo 781" transform="translate(-39 -32)">
    <g id="Grupo_9" data-name="Grupo 9" transform="translate(39 32)">
      <path id="Trazado_3" data-name="Trazado 3" d="M13.753,222.6a2.048,2.048,0,0,0-2.293,2.288v16.257a2.051,2.051,0,0,0,2.293,2.3,2.06,2.06,0,0,0,2.3-2.3v-4.867H14.219v4.867c0,.36-.136.508-.467.508s-.456-.147-.456-.508V224.888c0-.353.133-.5.468-.5s.455.144.455.5v4.877h1.836v-4.877A2.053,2.053,0,0,0,13.753,222.6Z" transform="translate(-11.46 -222.6)" fill="#222"/>
      <path id="Trazado_4" data-name="Trazado 4" d="M125.167,223.94h-2.35l-1.054,13.149-.493,7.3h1.848l.322-5.058h1.1l.322,5.058h1.848l-.491-7.318Zm-.729,13.6h-.89l.445-7.006Z" transform="translate(-105.255 -223.744)" fill="#222"/>
      <path id="Trazado_5" data-name="Trazado 5" d="M239.335,223.94H237.5v20.443h4.178v-1.79h-2.344Z" transform="translate(-204.534 -223.744)" fill="#222"/>
      <rect id="Rect치ngulo_8" data-name="Rect치ngulo 8" width="1.836" height="20.444" transform="translate(48.7 0.195)" fill="#222"/>
      <path id="Trazado_6" data-name="Trazado 6" d="M438.87,244.383H440.7v-9.337h2.021v-1.79H440.7v-7.537h2.344V223.94H438.87Z" transform="translate(-376.535 -223.744)" fill="#222"/>
      <path id="Trazado_7" data-name="Trazado 7" d="M548.853,222.6a2.048,2.048,0,0,0-2.293,2.288v16.257a2.3,2.3,0,0,0,4.6,0V224.888A2.053,2.053,0,0,0,548.853,222.6Zm.467,2.288v16.257c0,.36-.135.508-.467.508s-.457-.147-.457-.508V224.888c0-.353.133-.5.467-.5S549.319,224.535,549.319,224.888Z" transform="translate(-468.52 -222.6)" fill="#222"/>
      <path id="Trazado_8" data-name="Trazado 8" d="M662.91,232.749v-6.521c0-1.5-.742-2.288-2.147-2.288H658.44v20.444h1.835v-8.577l1.154,8.423.022.154h1.979l-1.5-9.707A2.078,2.078,0,0,0,662.91,232.749Zm-2.635-7.03h.341c.324,0,.457.147.457.508v6.521a.435.435,0,0,1-.279.467,1.267,1.267,0,0,1-.366.031h-.154v-7.526Z" transform="translate(-564.083 -223.744)" fill="#222"/>
      <path id="Trazado_9" data-name="Trazado 9" d="M773.894,233.913l-1.416-9.82-.022-.153H771.07v20.443h1.722V234.318l1.477,9.913.022.152h1.374V223.94h-1.772Z" transform="translate(-660.287 -223.744)" fill="#222"/>
      <rect id="Rect치ngulo_9" data-name="Rect치ngulo 9" width="1.836" height="20.444" transform="translate(127.182 0.195)" fill="#222"/>
      <path id="Trazado_10" data-name="Trazado 10" d="M980.17,237.056l-1.055-13.126h-2.348l-1.054,13.149-.493,7.3h1.848l.322-5.058h1.1l.322,5.058h1.848Zm-1.785.471h-.89l.445-7Z" transform="translate(-834.663 -223.736)" fill="#222"/>
    </g>
    <g id="Grupo_10" data-name="Grupo 10" transform="translate(39 60.136)">
      <path id="Trazado_2" data-name="Trazado 2" d="M312.738,378.767a.368.368,0,0,0-.174-.01c-.417.06.174.884-2.5,3.465a9.009,9.009,0,0,1-1.078,1.027c.1-.783.244-1.467.382-2.186.522-2.7.661-2.821.452-3.247-.279-.554-.834-.685-1.391-.852-.035,0-.069-.026-.1-.022-.382.054-.869.963-1.078,1.307-.1.155-.14.229-.209.239-.174.025-.312-.516-1.5-.8a1.29,1.29,0,0,0-.626-.053c-1.989.282-4.176,3.815-5.109,5.8-.149.219-.306.446-.481.691a.7.7,0,0,1-.347.328,30.506,30.506,0,0,1,.9-3.693,9.763,9.763,0,0,0,.382-1.976c.036-.845-.729-1.26-1.565-1.423a2.36,2.36,0,0,0-.452-.006,1.945,1.945,0,0,0-1.148.721c-1.46,2.059-1.495,2.134-3.442,5.312a.092.092,0,0,0-.07-.025c.349-1.518,1.218-4.927,1.183-5.1a2.364,2.364,0,0,0,.347-1.168.74.74,0,0,0-.487-1.015.9.9,0,0,0-.521-.067,1.069,1.069,0,0,0-.626.4c-1.175,1.374-2.517,4.884-2.926,7.632-.353.419-.783.9-1.32,1.463a6.394,6.394,0,0,1-1.425,1.18,2.484,2.484,0,0,1,.069-1.129,21.214,21.214,0,0,1,.624-2.186c.021-.038.044-.079.063-.112a.679.679,0,0,0,.071-.271c.715-2.007,1.479-3.461,1.329-3.666a1.474,1.474,0,0,0-1.253-.594.4.4,0,0,0-.244-.07.428.428,0,0,0-.279.178,1.924,1.924,0,0,0-.384.509,16.8,16.8,0,0,0-2.1,5.1c-1.317,1.686-3.2,3.986-3.547,3.917a20.21,20.21,0,0,1,.8-4.832c.172-.653.626-2.185.382-2.711a1.892,1.892,0,0,0-1.633-.853l-.14.019c-.382.054-.626.367-.9.617a32.432,32.432,0,0,0-2.573,3.65c-.07-.235-.035-.031.521-2.067a1.253,1.253,0,0,0-1.078-1.526,1.752,1.752,0,0,0-.556-.063c-.7.1-1.461,1.221-5.217,7.2a20.258,20.258,0,0,1,.731-3.214c1.285-4.447,1.46-4.367.8-4.728a1.8,1.8,0,0,0-1.078-.2c-.173.025-.243.1-.417.373a22.736,22.736,0,0,0-2.173,6.013,14.543,14.543,0,0,1-3.1,4.521c-.312-2.228,2.818-7.11,2.226-8.214a1.243,1.243,0,0,0-.8-.551.343.343,0,0,0-.244-.036c-.279.039-.521.458-1.46,1.641a2.356,2.356,0,0,0-.974-1.017,1.972,1.972,0,0,0-1.113-.263,2.119,2.119,0,0,0-1.043.567,12.005,12.005,0,0,0-2.612,3.963,23.216,23.216,0,0,1-3.537,4.072,4.271,4.271,0,0,1-1.356.646c-.07.01-.105.05-.174.06-.14.02-.174-.08-.244-.281a1.376,1.376,0,0,1-.07-.653,11.418,11.418,0,0,1,.3-1.763c.051-.13.1-.251.142-.366a.282.282,0,0,1,.187-.092,1.123,1.123,0,0,0,.209.006,1.775,1.775,0,0,0,.384.016,2.476,2.476,0,0,0,1.044-.461,5.86,5.86,0,0,0,2.469-3.74,1.494,1.494,0,0,0-.14-1.275,2.311,2.311,0,0,0-1.321-.864,1.335,1.335,0,0,0-.521-.066,1.132,1.132,0,0,0-.314.114c-2.742.869-4.97,6.21-4.353,8.926-.386.814-.824,1.682-1.305,2.533-.1.121-1.635,2.958-2.122,3.1-.452-2.8,1.67-6.668,2.226-8.915.314-1.3-.9-1.725-2.121-1.938-.279-.066-.279-.066-.174-.324.8-1.826,1.808-5.78.7-6.671a2.625,2.625,0,0,0-2.017-.414,4.4,4.4,0,0,0-.661.128c-.742.217-1.785,1.508-2.457,2.994a4.76,4.76,0,0,0-.847-1.539,4.65,4.65,0,0,0-4.381-1.9c-2.294.324-6.121,3.067-6.885,5.377-.244.662-.1,1.378.556,1.458.244.037.452.182.592.162.105-.015.174-.095.209-.344a4.287,4.287,0,0,1,1.738-2.727,8.864,8.864,0,0,1,4.66-2.475,1.637,1.637,0,0,1,2.017,1.044c1.251,3.319-.834,7.634-2.539,10.741-.279.528-.591.992-1.216,1.081-.487.1-.973.452-1.53.566.035-.809.174-1.6.279-2.382.349-1.937.626-3.025,1.773-8.22a1.048,1.048,0,0,0-1.113-1.313.356.356,0,0,0-.279-.1c-.174.025-.312.217-.417.373a18.49,18.49,0,0,0-2.052,6.2,48.083,48.083,0,0,0-.592,6.271,1.186,1.186,0,0,1-.487.977,8.92,8.92,0,0,0-2.851,3.9,1.319,1.319,0,0,0,.7,1.79,3.155,3.155,0,0,0,2.226.211c.731-.174,1.113-.543,1.81-.64a1.89,1.89,0,0,1,.591-.013l.105-.015a.352.352,0,0,0,.279-.563c-.417-.57.764-.318,4.034-4.835.282-.387.484-.786.774-1.127a13.579,13.579,0,0,0,6.426-6.4c.035,0,.069-.045.105-.05.347-.049.9.257.521,1.324-1.009,2.7-1.947,4.89-2.086,7.146-.105,1.343.279,2.721,1.565,2.787a3.11,3.11,0,0,0,.556-.044,2.592,2.592,0,0,0,1.67-.9,5.314,5.314,0,0,0,.8-1.092c.764-1.5,1.41-2.821,1.948-3.973a1.587,1.587,0,0,0,.72.312,5.135,5.135,0,0,0,1.391.013c1.453-.206,2.494-1.187,3.629-2.558,0,.911.354,1.536,1.234,1.558a2.471,2.471,0,0,1,.521-.039.572.572,0,0,0,.244,0c1.286-.181,3.06-3.544,3.338-3.617a7.2,7.2,0,0,0-.244,3.181,1.427,1.427,0,0,0,1.773,1.078c.741-.1,1.724-1.19,2.6-2.469,0,.168-.009.334-.006.495a1.25,1.25,0,0,0,1.565,1.212c.974-.137,1.321-.607,1.81-1.479,1.668-2.892,1.842-3.267,2.4-4.114a.206.206,0,0,1,.036.239,4.554,4.554,0,0,0-.07,1.2c.035.8.869,1.206,1.7,1.088a1.782,1.782,0,0,0,1.113-.576,23.466,23.466,0,0,0,2.261-3.465c0,.14.035.2,0,.245-.592,2.252-.9,5.373,1.286,5.692a3.777,3.777,0,0,0,1.181.007,3.5,3.5,0,0,0,2.331-1.622c.182-.21.553-.668,1-1.241a1.685,1.685,0,0,0,1.864.872,2.912,2.912,0,0,0,1.356-.576,12.081,12.081,0,0,0,1.493-1.521,3.77,3.77,0,0,0,.076.5,1.3,1.3,0,0,0,1.53.974c.243-.035.487-.14.729-.174l.1-.015c.939-.133,1.461-1.464,3.165-4.5a1.815,1.815,0,0,1,.487-.734,14.251,14.251,0,0,0-.314,2.282c-.1,1.238.349,2.433,1.6,2.328a3.452,3.452,0,0,0,1.426-.459c.249.681.976.986,2.182.894,1.251-.176,3.477-2.414,4.278-3.471.417-.478.521-.633.661-.582.1.055.068.165.068.235s-.035.144-.035.214c-.626,2.43-.556,2.491-.973,2.829-4.521,3.61-7.754,5.745-8.624,8.175-.661,1.875.626,3.373,2.921,3.05a6.581,6.581,0,0,0,1.078-.258,11.427,11.427,0,0,0,4.416-3.91,17.529,17.529,0,0,0,2.99-6.818c.174-.688.487-.664,1.947-2.093,2.5-2.487,2.261-2.7,2.713-3.459a9.373,9.373,0,0,0,.522-.983C313.71,379.188,313.5,378.9,312.738,378.767Zm-54.652,5.161a4.934,4.934,0,0,1-1.947,3.107A7.291,7.291,0,0,1,258.086,383.928Zm-22.944,13.944a11.434,11.434,0,0,1-1.009.7,3.227,3.227,0,0,1,1.078-1.8C235.246,397.613,235.351,397.772,235.142,397.872Zm2.329-2.287c-.139-.575-.069-.83.417-1.108a4.419,4.419,0,0,1,1.009-.491.114.114,0,0,1,.1.02A5.429,5.429,0,0,1,237.471,395.586Zm9.878-8.466a15.257,15.257,0,0,1-3.373,3.448c.435-.91.806-1.734.868-1.895a13.2,13.2,0,0,0,.715-2.6c.019.012.035.025.054.037C247.14,387.045,247.524,386.4,247.349,387.119Zm.592-1.8c-1.321-.372-.8-3.314.521-4.967A12.318,12.318,0,0,1,247.941,385.323Zm16.467.649c-.416.582-1.98,2.622-2.433,3.07-.14-.47,1.113-3.338,2.5-5.037.035-.039.069-.114.139-.124a.1.1,0,0,1,.07.025c.069-.01.069.1.069.131C264.825,385.458,264.652,385.623,264.408,385.972Zm40.819-4.536a24.9,24.9,0,0,1-3.72,3.671,14.017,14.017,0,0,1,3.06-5.188c.279-.249.591-.467.869-.716.035-.039.069-.08.1-.086.105-.014.105.161.14.19A1.885,1.885,0,0,1,305.227,381.436Zm-6.016,14.692a.469.469,0,0,1-.208.066c-.174.025-.244-.036-.277-.276-.28-1.219.207-1.937,1.425-3.069,3.13-2.714,2.434-1.986,4.486-3.639C303.627,391.8,301.957,395.007,299.211,396.128Z" transform="translate(-231.808 -376)" fill="#5ccfd3"/>
      <g id="Grupo_1" data-name="Grupo 1" transform="translate(78.426 8.647)">
        <path id="Trazado_11" data-name="Trazado 11" d="M772.362,435.538a1.861,1.861,0,0,1,.679.671,1.782,1.782,0,0,1,.252.927,1.865,1.865,0,0,1-.246.942,1.82,1.82,0,0,1-.679.675,1.927,1.927,0,0,1-1.891,0,1.8,1.8,0,0,1-.68-.675,1.85,1.85,0,0,1-.247-.942,1.787,1.787,0,0,1,.251-.927,1.888,1.888,0,0,1,.68-.671,1.909,1.909,0,0,1,1.882,0Zm-.177,2.911a1.47,1.47,0,0,0,.547-.547,1.512,1.512,0,0,0,.2-.766,1.473,1.473,0,0,0-.747-1.292,1.567,1.567,0,0,0-1.531,0,1.474,1.474,0,0,0-.747,1.292,1.512,1.512,0,0,0,.2.766,1.447,1.447,0,0,0,.547.547,1.567,1.567,0,0,0,1.531,0Zm-.233-1.38a.365.365,0,0,1-.181.162c-.026.019-.035.038-.029.057l.248.6.009.038c0,.051-.029.076-.086.076h-.122a.1.1,0,0,1-.105-.076l-.238-.608a.037.037,0,0,0-.038-.029h-.153a.033.033,0,0,0-.038.038v.58a.084.084,0,0,1-.095.095h-.1a.083.083,0,0,1-.095-.095v-1.512a.084.084,0,0,1,.095-.095h.5a.474.474,0,0,1,.357.143.5.5,0,0,1,.137.362A.483.483,0,0,1,771.952,437.069Zm-.732-.475v.427a.033.033,0,0,0,.038.038h.229a.224.224,0,0,0,.172-.071.283.283,0,0,0,0-.366.231.231,0,0,0-.172-.067h-.229A.036.036,0,0,0,771.22,436.594Z" transform="translate(-769.55 -435.29)" fill="#5ccfd3"/>
      </g>
    </g>
  </g>
</svg>
