<svg xmlns="http://www.w3.org/2000/svg" width="100" height="36.174" viewBox="0 0 100 36.174">
  <g id="Grupo_781" data-name="Grupo 781" transform="translate(-39 -32)">
    <g id="Grupo_9" data-name="Grupo 9" transform="translate(39 32)">
      <path id="Trazado_3" data-name="Trazado 3" d="M13.03,222.6a1.4,1.4,0,0,0-1.57,1.567V235.3a1.4,1.4,0,0,0,1.57,1.573,1.411,1.411,0,0,0,1.576-1.573v-3.333H13.35V235.3c0,.247-.093.348-.32.348s-.313-.1-.313-.348V224.167c0-.242.091-.341.321-.341s.312.1.312.341v3.34h1.258v-3.34A1.406,1.406,0,0,0,13.03,222.6Z" transform="translate(-11.46 -222.6)" fill="#222"/>
      <path id="Trazado_4" data-name="Trazado 4" d="M123.939,223.94H122.33l-.722,9.006-.338,5h1.266l.221-3.464h.755l.221,3.464H125l-.337-5.013Zm-.5,9.312h-.609l.3-4.8Z" transform="translate(-110.301 -223.806)" fill="#222"/>
      <path id="Trazado_5" data-name="Trazado 5" d="M238.757,223.94H237.5v14h2.862v-1.226h-1.605Z" transform="translate(-214.92 -223.806)" fill="#222"/>
      <rect id="Rect치ngulo_8" data-name="Rect치ngulo 8" width="1.258" height="14.003" transform="translate(33.356 0.134)" fill="#222"/>
      <path id="Trazado_6" data-name="Trazado 6" d="M438.87,237.942h1.257v-6.4h1.384v-1.226h-1.384v-5.162h1.605V223.94H438.87Z" transform="translate(-396.175 -223.806)" fill="#222"/>
      <path id="Trazado_7" data-name="Trazado 7" d="M548.13,222.6a1.4,1.4,0,0,0-1.57,1.567V235.3a1.574,1.574,0,0,0,3.148,0V224.167A1.406,1.406,0,0,0,548.13,222.6Zm.32,1.567V235.3c0,.247-.093.348-.32.348s-.313-.1-.313-.348V224.167c0-.242.091-.341.32-.341S548.45,223.926,548.45,224.167Z" transform="translate(-493.108 -222.6)" fill="#222"/>
      <path id="Trazado_8" data-name="Trazado 8" d="M661.5,229.973v-4.466c0-1.025-.508-1.567-1.47-1.567H658.44v14H659.7v-5.875l.79,5.769.015.106h1.356l-1.029-6.649A1.423,1.423,0,0,0,661.5,229.973Zm-1.8-4.815h.234c.222,0,.313.1.313.348v4.466a.3.3,0,0,1-.191.32.866.866,0,0,1-.251.021H659.7v-5.155Z" transform="translate(-593.812 -223.806)" fill="#222"/>
      <path id="Trazado_9" data-name="Trazado 9" d="M773,230.771l-.97-6.726-.015-.1h-.949v14h1.18v-6.894l1.012,6.79.015.1h.941v-14H773Z" transform="translate(-695.191 -223.806)" fill="#222"/>
      <rect id="Rect치ngulo_9" data-name="Rect치ngulo 9" width="1.258" height="14.003" transform="translate(87.111 0.134)" fill="#222"/>
      <path id="Trazado_10" data-name="Trazado 10" d="M978.61,232.92l-.722-8.99H976.28l-.722,9.006-.338,5h1.266l.221-3.464h.755l.221,3.464h1.266Zm-1.223.323h-.609l.3-4.8Z" transform="translate(-878.948 -223.797)" fill="#222"/>
    </g>
    <g id="Grupo_10" data-name="Grupo 10" transform="translate(39 51.272)">
      <path id="Trazado_2" data-name="Trazado 2" d="M287.239,377.9a.252.252,0,0,0-.119-.007c-.286.041.119.605-1.714,2.373a6.17,6.17,0,0,1-.738.7c.071-.536.167-1,.262-1.5.358-1.847.453-1.932.31-2.224-.191-.38-.571-.47-.953-.583-.024,0-.047-.018-.071-.015-.262.037-.6.659-.738.895-.072.106-.1.157-.143.164-.119.017-.214-.354-1.025-.55a.884.884,0,0,0-.429-.036c-1.363.193-2.86,2.613-3.5,3.971-.1.15-.21.306-.33.473a.476.476,0,0,1-.238.225,20.9,20.9,0,0,1,.619-2.529,6.688,6.688,0,0,0,.262-1.354c.025-.578-.5-.863-1.072-.975a1.617,1.617,0,0,0-.31,0,1.332,1.332,0,0,0-.786.494c-1,1.41-1.024,1.461-2.357,3.638a.063.063,0,0,0-.048-.017c.239-1.04.834-3.374.81-3.49a1.619,1.619,0,0,0,.238-.8.507.507,0,0,0-.334-.7.617.617,0,0,0-.357-.046.732.732,0,0,0-.429.277,12.676,12.676,0,0,0-2,5.227c-.242.287-.536.617-.9,1a4.38,4.38,0,0,1-.976.808,1.7,1.7,0,0,1,.047-.773,14.529,14.529,0,0,1,.427-1.5l.043-.077a.465.465,0,0,0,.049-.186,14.9,14.9,0,0,0,.91-2.511,1.009,1.009,0,0,0-.858-.407.274.274,0,0,0-.167-.048.293.293,0,0,0-.191.122,1.318,1.318,0,0,0-.263.349,11.508,11.508,0,0,0-1.435,3.49c-.9,1.155-2.192,2.73-2.429,2.683a13.843,13.843,0,0,1,.548-3.309,4.386,4.386,0,0,0,.262-1.857,1.3,1.3,0,0,0-1.119-.584l-.1.013c-.262.037-.429.252-.619.423a22.209,22.209,0,0,0-1.762,2.5c-.048-.161-.024-.021.357-1.415a.858.858,0,0,0-.738-1.045,1.2,1.2,0,0,0-.381-.043c-.476.067-1,.836-3.573,4.935a13.875,13.875,0,0,1,.5-2.2c.88-3.046,1-2.991.547-3.239a1.232,1.232,0,0,0-.738-.135c-.119.017-.167.071-.286.256a15.572,15.572,0,0,0-1.488,4.119,9.962,9.962,0,0,1-2.125,3.1c-.214-1.526,1.93-4.87,1.524-5.626a.851.851,0,0,0-.548-.378.235.235,0,0,0-.167-.025c-.191.027-.357.314-1,1.124a1.614,1.614,0,0,0-.667-.7,1.351,1.351,0,0,0-.762-.18,1.451,1.451,0,0,0-.714.389,8.223,8.223,0,0,0-1.789,2.714,15.9,15.9,0,0,1-2.422,2.789,2.925,2.925,0,0,1-.929.443c-.048.007-.072.034-.119.041-.1.014-.119-.055-.167-.193a.942.942,0,0,1-.048-.448,7.819,7.819,0,0,1,.2-1.208c.035-.089.068-.172.1-.251a.193.193,0,0,1,.128-.063.77.77,0,0,0,.143,0,1.216,1.216,0,0,0,.263.011,1.7,1.7,0,0,0,.715-.316,4.014,4.014,0,0,0,1.691-2.561,1.023,1.023,0,0,0-.1-.873,1.583,1.583,0,0,0-.905-.591.915.915,0,0,0-.357-.045.775.775,0,0,0-.215.078c-1.878.6-3.4,4.253-2.982,6.113-.265.557-.564,1.152-.894,1.735-.072.083-1.12,2.026-1.453,2.121-.31-1.92,1.144-4.567,1.524-6.106.215-.892-.619-1.182-1.452-1.328-.191-.045-.191-.045-.119-.222.548-1.251,1.239-3.959.476-4.569a1.8,1.8,0,0,0-1.381-.284,3.016,3.016,0,0,0-.452.088,3.974,3.974,0,0,0-1.683,2.051,3.26,3.26,0,0,0-.58-1.054,3.185,3.185,0,0,0-3-1.3c-1.571.222-4.192,2.1-4.716,3.683-.167.454-.072.944.381,1,.167.025.31.125.406.111.072-.01.119-.065.143-.236a2.936,2.936,0,0,1,1.191-1.868,6.071,6.071,0,0,1,3.192-1.7,1.121,1.121,0,0,1,1.382.715c.857,2.274-.571,5.228-1.739,7.357-.191.362-.4.679-.833.74-.334.072-.666.31-1.048.388.024-.554.119-1.095.191-1.631.239-1.327.429-2.072,1.215-5.63a.718.718,0,0,0-.762-.9.244.244,0,0,0-.191-.068c-.119.017-.214.149-.286.256a12.664,12.664,0,0,0-1.405,4.244,32.934,32.934,0,0,0-.406,4.3.812.812,0,0,1-.334.669,6.11,6.11,0,0,0-1.953,2.67.9.9,0,0,0,.476,1.226,2.161,2.161,0,0,0,1.524.145c.5-.119.762-.372,1.24-.439a1.3,1.3,0,0,1,.4-.009l.072-.01a.241.241,0,0,0,.191-.386c-.286-.391.523-.218,2.763-3.311.193-.265.332-.538.53-.772a9.3,9.3,0,0,0,4.4-4.385c.024,0,.047-.031.072-.034.238-.034.619.176.357.907a17.762,17.762,0,0,0-1.428,4.895c-.072.92.191,1.864,1.072,1.909a2.128,2.128,0,0,0,.381-.03,1.775,1.775,0,0,0,1.144-.616,3.64,3.64,0,0,0,.547-.748c.523-1.024.966-1.932,1.335-2.721a1.087,1.087,0,0,0,.493.214,3.518,3.518,0,0,0,.953.009,4.09,4.09,0,0,0,2.485-1.752c0,.624.243,1.052.845,1.067a1.7,1.7,0,0,1,.357-.027.392.392,0,0,0,.167,0c.881-.124,2.1-2.427,2.287-2.477a4.934,4.934,0,0,0-.167,2.179.978.978,0,0,0,1.215.738c.507-.072,1.181-.815,1.783-1.691,0,.115-.006.229,0,.339a.856.856,0,0,0,1.072.83c.667-.094.905-.416,1.24-1.013,1.143-1.981,1.262-2.238,1.642-2.818a.141.141,0,0,1,.025.164,3.119,3.119,0,0,0-.048.821c.024.547.6.826,1.167.745a1.22,1.22,0,0,0,.762-.395,16.073,16.073,0,0,0,1.548-2.373c0,.1.024.14,0,.168-.406,1.542-.619,3.68.881,3.9a2.587,2.587,0,0,0,.809.005,2.394,2.394,0,0,0,1.6-1.111c.125-.144.379-.458.683-.85a1.154,1.154,0,0,0,1.277.6,1.994,1.994,0,0,0,.929-.395,8.274,8.274,0,0,0,1.023-1.042,2.584,2.584,0,0,0,.052.34.889.889,0,0,0,1.048.667c.167-.024.334-.1.5-.119l.071-.01c.643-.091,1-1,2.168-3.084a1.244,1.244,0,0,1,.334-.5,9.762,9.762,0,0,0-.215,1.563c-.071.848.239,1.666,1.1,1.594a2.365,2.365,0,0,0,.977-.315c.171.467.668.675,1.494.612.857-.121,2.382-1.653,2.93-2.377.286-.328.357-.434.453-.4.071.038.047.113.047.161s-.024.1-.024.147c-.429,1.664-.381,1.706-.666,1.938-3.1,2.472-5.311,3.935-5.907,5.6-.453,1.285.428,2.311,2,2.089a4.509,4.509,0,0,0,.738-.177,7.827,7.827,0,0,0,3.025-2.678,12.006,12.006,0,0,0,2.048-4.67c.119-.471.334-.454,1.334-1.433a6.523,6.523,0,0,0,1.858-2.369,6.421,6.421,0,0,0,.358-.673C287.905,378.184,287.762,377.989,287.239,377.9Zm-37.433,3.535a3.38,3.38,0,0,1-1.334,2.128A4.994,4.994,0,0,1,249.806,381.43Zm-15.715,9.551a7.828,7.828,0,0,1-.691.48,2.21,2.21,0,0,1,.738-1.23C234.162,390.8,234.234,390.912,234.091,390.981Zm1.6-1.566c-.095-.394-.047-.568.286-.759a3.026,3.026,0,0,1,.691-.337.078.078,0,0,1,.071.014A3.718,3.718,0,0,1,235.687,389.415Zm6.766-5.8a10.45,10.45,0,0,1-2.31,2.362c.3-.623.552-1.188.594-1.3a9.044,9.044,0,0,0,.489-1.783l.037.025C242.31,383.565,242.572,383.121,242.452,383.616Zm.406-1.231c-.905-.255-.548-2.27.357-3.4A8.437,8.437,0,0,1,242.858,382.385Zm11.279.445c-.285.4-1.357,1.8-1.666,2.1a8.4,8.4,0,0,1,1.714-3.45c.024-.027.047-.078.095-.085a.067.067,0,0,1,.048.017c.047-.007.047.066.047.09C254.422,382.478,254.3,382.591,254.137,382.83Zm27.958-3.107a17.054,17.054,0,0,1-2.548,2.514,9.6,9.6,0,0,1,2.1-3.553c.191-.171.4-.32.6-.49.024-.027.047-.055.071-.059.072-.01.072.11.1.13A1.291,1.291,0,0,1,282.095,379.723Zm-4.121,10.063a.321.321,0,0,1-.143.045c-.119.017-.167-.025-.19-.189-.192-.835.142-1.327.976-2.1,2.144-1.859,1.667-1.36,3.073-2.492C281,386.822,279.855,389.018,277.974,389.786Z" transform="translate(-231.808 -376)" fill="#5ccfd3"/>
      <g id="Grupo_1" data-name="Grupo 1" transform="translate(53.716 5.923)">
        <path id="Trazado_11" data-name="Trazado 11" d="M771.476,435.46a1.275,1.275,0,0,1,.465.46,1.22,1.22,0,0,1,.173.635,1.277,1.277,0,0,1-.169.645,1.246,1.246,0,0,1-.465.462,1.32,1.32,0,0,1-1.3,0,1.23,1.23,0,0,1-.466-.462,1.268,1.268,0,0,1-.169-.645,1.224,1.224,0,0,1,.172-.635,1.293,1.293,0,0,1,.466-.46,1.308,1.308,0,0,1,1.289,0Zm-.121,1.994a1.007,1.007,0,0,0,.375-.375,1.036,1.036,0,0,0,.137-.524,1.009,1.009,0,0,0-.511-.885,1.073,1.073,0,0,0-1.049,0,1.009,1.009,0,0,0-.512.885,1.035,1.035,0,0,0,.137.524.992.992,0,0,0,.375.375,1.073,1.073,0,0,0,1.049,0Zm-.16-.945a.25.25,0,0,1-.124.111c-.018.013-.024.026-.02.039l.17.411.006.026c0,.035-.02.052-.059.052h-.084a.071.071,0,0,1-.072-.052l-.163-.417a.025.025,0,0,0-.026-.02h-.1a.023.023,0,0,0-.026.026v.4a.057.057,0,0,1-.065.065h-.072a.057.057,0,0,1-.065-.065v-1.036a.057.057,0,0,1,.065-.065h.345a.324.324,0,0,1,.245.1.341.341,0,0,1,.094.248A.331.331,0,0,1,771.2,436.509Zm-.5-.326v.293a.023.023,0,0,0,.026.026h.157a.153.153,0,0,0,.118-.049.193.193,0,0,0,0-.251.158.158,0,0,0-.118-.046h-.157A.024.024,0,0,0,770.694,436.183Z" transform="translate(-769.55 -435.29)" fill="#5ccfd3"/>
      </g>
    </g>
  </g>
</svg>
