<svg id="share" xmlns="http://www.w3.org/2000/svg" width="32" height="32" viewBox="0 0 32 32">
  <g id="Grupo_649" data-name="Grupo 649" transform="translate(-1509.096 -498.463)">
    <line id="Línea_107" data-name="Línea 107" x2="5.769" y2="2.945" transform="translate(1522.057 515.771)" fill="none" stroke="#222" stroke-linecap="round" stroke-linejoin="round" stroke-width="1.5"/>
    <line id="Línea_108" data-name="Línea 108" x1="5.786" y2="2.833" transform="translate(1522.139 509.561)" fill="none" stroke="#222" stroke-linecap="round" stroke-linejoin="round" stroke-width="1.5"/>
    <path id="Trazado_980" data-name="Trazado 980" d="M1535.064,508.167a3.7,3.7,0,1,1-3.7-3.7A3.705,3.705,0,0,1,1535.064,508.167Z" fill="none" stroke="#222" stroke-linecap="round" stroke-linejoin="round" stroke-width="1.5"/>
    <path id="Trazado_981" data-name="Trazado 981" d="M1535.064,519.836a3.7,3.7,0,1,1-3.7-3.7A3.705,3.705,0,0,1,1535.064,519.836Z" fill="none" stroke="#222" stroke-linecap="round" stroke-linejoin="round" stroke-width="1.5"/>
    <path id="Trazado_982" data-name="Trazado 982" d="M1522.506,514a3.705,3.705,0,1,1-3.7-3.705A3.705,3.705,0,0,1,1522.506,514Z" fill="none" stroke="#222" stroke-linecap="round" stroke-linejoin="round" stroke-width="1.5"/>
  </g>
  <rect id="Rectángulo_1326" data-name="Rectángulo 1326" width="32" height="32" fill="none"/>
</svg>
